<?xml version="1.0" standalone="no"?>
<!DOCTYPE svg PUBLIC "-//W3C//DTD SVG 20010904//EN"
 "http://www.w3.org/TR/2001/REC-SVG-20010904/DTD/svg10.dtd">
<svg version="1.0" xmlns="http://www.w3.org/2000/svg"
 width="500.000000pt" height="320.000000pt" viewBox="0 0 500.000000 320.000000"
 preserveAspectRatio="xMidYMid meet">
<metadata>
Created by potrace 1.15, written by Peter Selinger 2001-2017
</metadata>
<g transform="translate(0.000000,320.000000) scale(0.100000,-0.100000)"
fill="#000000" stroke="none">
<path d="M2467 1994 c-4 -4 -7 -43 -7 -86 l0 -78 -294 0 c-237 0 -296 -3 -305
-14 -8 -9 -11 -70 -9 -197 l3 -184 303 -3 302 -2 0 -85 c0 -66 3 -87 15 -91
22 -9 640 349 640 371 0 12 -92 70 -305 192 -168 97 -312 178 -320 180 -9 2
-19 1 -23 -3z"/>
</g>
</svg>
